<mxfile host="65bd71144e">
    <diagram id="gJFQ1KsgQhg-a3X3E4Ei" name="Page-1">
        <mxGraphModel dx="244" dy="470" grid="1" gridSize="10" guides="1" tooltips="1" connect="1" arrows="1" fold="1" page="1" pageScale="1" pageWidth="827" pageHeight="1169" math="0" shadow="0">
            <root>
                <mxCell id="0"/>
                <mxCell id="1" parent="0"/>
                <mxCell id="2" value="Candidate" style="swimlane;" vertex="1" parent="1">
                    <mxGeometry x="50" y="80" width="200" height="240" as="geometry"/>
                </mxCell>
                <mxCell id="3" value="+ id&lt;br&gt;+ name&lt;br&gt;+ skills&lt;br&gt;&lt;div style=&quot;&quot;&gt;+ trainning&lt;/div&gt;&lt;div style=&quot;&quot;&gt;+ experience&lt;/div&gt;&lt;div style=&quot;&quot;&gt;+ projects&lt;/div&gt;" style="text;html=1;align=left;verticalAlign=middle;resizable=0;points=[];autosize=1;fillColor=none;" vertex="1" parent="2">
                    <mxGeometry x="10" y="30" width="90" height="100" as="geometry"/>
                </mxCell>
                <mxCell id="4" value="" style="shape=link;html=1;fillColor=#f9f7ed;strokeColor=#36393d;" edge="1" parent="2">
                    <mxGeometry width="100" relative="1" as="geometry">
                        <mxPoint y="130" as="sourcePoint"/>
                        <mxPoint x="200" y="130" as="targetPoint"/>
                    </mxGeometry>
                </mxCell>
                <mxCell id="5" value="+ create" style="text;html=1;align=left;verticalAlign=middle;resizable=0;points=[];autosize=1;fillColor=none;" vertex="1" parent="2">
                    <mxGeometry x="10" y="150" width="70" height="30" as="geometry"/>
                </mxCell>
                <mxCell id="7" value="Job" style="swimlane;" vertex="1" parent="1">
                    <mxGeometry x="330" y="80" width="200" height="240" as="geometry"/>
                </mxCell>
                <mxCell id="8" value="+ id&lt;br&gt;+ name&lt;br&gt;&lt;div style=&quot;&quot;&gt;+ requirements&lt;/div&gt;&lt;div style=&quot;&quot;&gt;+ wage&lt;/div&gt;&lt;div style=&quot;&quot;&gt;+ benefits&lt;/div&gt;&lt;div style=&quot;&quot;&gt;+ isRemote&lt;/div&gt;&lt;div style=&quot;&quot;&gt;+ localization&lt;/div&gt;" style="text;html=1;align=left;verticalAlign=middle;resizable=0;points=[];autosize=1;fillColor=none;" vertex="1" parent="7">
                    <mxGeometry x="10" y="25" width="100" height="110" as="geometry"/>
                </mxCell>
                <mxCell id="9" value="" style="shape=link;html=1;fillColor=#f9f7ed;strokeColor=#36393d;" edge="1" parent="7">
                    <mxGeometry width="100" relative="1" as="geometry">
                        <mxPoint y="135" as="sourcePoint"/>
                        <mxPoint x="200" y="135" as="targetPoint"/>
                    </mxGeometry>
                </mxCell>
                <mxCell id="10" value="+ create" style="text;html=1;align=left;verticalAlign=middle;resizable=0;points=[];autosize=1;fillColor=none;" vertex="1" parent="7">
                    <mxGeometry x="10" y="135" width="70" height="30" as="geometry"/>
                </mxCell>
            </root>
        </mxGraphModel>
    </diagram>
</mxfile>